<svg height='100px' width='100px'  fill="#000000" xmlns="http://www.w3.org/2000/svg" data-name="Layer 1" viewBox="0 0 100 100" x="0px" y="0px"><title>74 all</title><path d="M36.39,39.39V60.61a3,3,0,0,0,3,3H60.61a3,3,0,0,0,3-3V39.39a3,3,0,0,0-3-3H39.39A3,3,0,0,0,36.39,39.39Zm6,3H57.61V57.61H42.39Z"></path><path d="M53,28.71V19.42a9.46,9.46,0,1,0-6,0v9.29ZM50,7a3.46,3.46,0,1,1-3.46,3.46A3.46,3.46,0,0,1,50,7Z"></path><path d="M47,71.29v9.29a9.46,9.46,0,1,0,6,0V71.29ZM50,93a3.46,3.46,0,1,1,3.46-3.46A3.46,3.46,0,0,1,50,93Z"></path><path d="M67.18,37.07l6.57-6.57a9.46,9.46,0,1,0-4.24-4.24l-6.57,6.57Zm8.34-17.47a3.46,3.46,0,1,1,0,4.89A3.45,3.45,0,0,1,75.52,19.59Z"></path><path d="M32.82,62.93,26.26,69.5a9.44,9.44,0,0,0-10.9,1.77h0A9.46,9.46,0,1,0,30.5,73.74l6.57-6.57ZM24.48,80.41a3.46,3.46,0,1,1-4.89-4.89h0a3.46,3.46,0,0,1,4.89,4.89Z"></path><path d="M84.65,71.27A9.44,9.44,0,0,0,73.74,69.5l-6.57-6.57-4.24,4.24,6.57,6.57a9.47,9.47,0,0,0,1.77,10.9h0A9.46,9.46,0,0,0,84.65,71.27Zm-4.24,9.13a3.46,3.46,0,0,1-4.89-4.89,3.54,3.54,0,0,1,4.89,0A3.46,3.46,0,0,1,80.41,80.41Z"></path><path d="M28.73,15.35A9.46,9.46,0,1,0,26.25,30.5l6.57,6.57,4.24-4.24L30.5,26.26a9.44,9.44,0,0,0-1.77-10.91Zm-9.13,9.13a3.46,3.46,0,0,1,4.89-4.89h0a3.46,3.46,0,1,1-4.89,4.89Z"></path><path d="M89.54,40.54a9.47,9.47,0,0,0-9,6.46H71.29v6h9.29a9.45,9.45,0,1,0,9-12.46Zm0,12.92A3.46,3.46,0,1,1,93,50,3.46,3.46,0,0,1,89.54,53.46Z"></path><path d="M1,50a9.45,9.45,0,0,0,18.42,3h9.29V47H19.42A9.45,9.45,0,0,0,1,50Zm12.92,0a3.46,3.46,0,1,1-3.46-3.46A3.46,3.46,0,0,1,13.91,50Z"></path><rect x="45.75" y="47" width="8.5" height="6"></rect></svg>
