<svg height='100px' width='100px'  fill="#000000" xmlns="http://www.w3.org/2000/svg" xmlns:xlink="http://www.w3.org/1999/xlink" version="1.1" x="0px" y="0px" viewBox="0 0 90 90" style="enable-background:new 0 0 90 90;" xml:space="preserve"><path d="M22.3,64.2c0-6.9,3.2-11.7,9.6-14.4c-0.5-0.8-0.9-1.6-1.3-2.5c-0.7-0.3-1.3-0.5-1.9-0.6v-1.4c0.5-0.6,0.9-1.3,1.2-2  c0-0.8,0.1-1.5,0.3-2.3l1.9-8.2c0,0,0-0.1,0-0.1c0-0.1,0.1-0.3,0.1-0.4c0.7-4,0.3-6.9-1-8.6c-0.5-0.7-1.3-1.2-2.1-1.4  c-0.7-1.1-1.7-2-2.8-2.6c-1.8-1-3.8-1.5-5.9-1.3c-0.8,0-1.6,0.2-2.4,0.4c-0.9,0.3-1.8,0.8-2.6,1.3c-1,0.6-1.8,1.4-2.6,2.2  c-1.4,1.4-2.4,3.1-2.9,5c-0.4,1.5-0.4,3.1,0,4.7l0,0.2c0,0.1,0.1,0.3,0.1,0.5c-1.1,1.5-0.7,3.6-0.3,5c0.2,0.8,0.7,2.5,1.7,3.5  c0.4,1.4,1.1,2.8,2,3.9v1.4c-4,0.9-13.1,5.5-13.1,12.8c0,3.1,5.5,5.8,13.2,6.9c2.2,0.3,4.4,0.4,6.6,0.4l1.9,0c0.3,0,0.6,0,0.9,0  C22.6,66,22.3,65.1,22.3,64.2z M19.7,53.5l-3.1-3.3v-5.7c-1.4-1.4-2.2-3.1-2.4-4.6c0-0.2-0.2-0.4-0.4-0.4c0,0-0.5-0.1-1.1-2.4  c-0.5-1.8-0.2-2.3-0.2-2.5c0.1-0.1,0.2-0.1,0.3-0.1h0.1c0.1,0,0.2,0,0.3-0.1c0.1-0.1,0.2-0.2,0.2-0.3c0,0,0.3-3.8,2.5-5.1  c1.1-0.7,2.5-0.6,4.1,0.1c3.6,1.5,6.2,1.4,7.8,1.1c1.6,1.3,1.1,3.3,1,3.7v0c-0.1,0.2,0,0.3,0.1,0.5c0.1,0.1,0.3,0.2,0.4,0.2  c0.2,0,0.3,0,0.4,0.1c0.1,0.1,0.4,0.7-0.2,2.5c-0.7,2.3-1.2,2.4-1.2,2.4c-0.2,0-0.4,0.2-0.4,0.4c-0.2,1.5-1.1,3.3-2.4,4.6v5.7  l-3.1,3.3C21.7,54.3,20.4,54.3,19.7,53.5z"></path><path d="M76.6,46.7v-1.4c0.9-1.2,1.5-2.5,2-3.9c1-1.1,1.5-2.7,1.7-3.5c0.4-1.4,0.8-3.5-0.3-5.1c0-0.1,0.1-0.3,0.1-0.4  c0.7-4,0.3-6.9-1-8.6c-0.5-0.7-1.3-1.2-2.1-1.4c-0.7-1.1-1.7-2-2.8-2.6c-1.8-1-3.8-1.5-5.9-1.3c-0.8,0-1.6,0.2-2.4,0.4  c-0.9,0.3-1.8,0.8-2.6,1.3c-1,0.6-1.8,1.4-2.6,2.2c-1.4,1.4-2.4,3.1-2.9,5c-0.4,1.5-0.4,3.1,0,4.7l0,0.1l2.1,8.8  c0.2,0.8,0.3,1.6,0.3,2.4c0.3,0.7,0.7,1.3,1.2,1.9v1.4c-0.5,0.1-1.2,0.3-1.8,0.6c-0.3,0.9-0.8,1.8-1.3,2.6c6.3,2.8,9.6,7.7,9.6,14.3  c0,0.9-0.3,1.8-0.7,2.6c0.4,0,0.7,0,1.1,0l1.9,0c2.2,0,4.4-0.1,6.6-0.4c7.7-1.1,13.1-3.7,13.1-6.8C89.7,52.2,80.6,47.6,76.6,46.7z   M76.3,39.4c-0.2,0-0.4,0.2-0.4,0.4c-0.2,1.5-1.1,3.3-2.4,4.6v5c0,2.5-2,4.5-4.5,4.5c-2.5,0-4.5-2-4.5-4.5v-5  c-1.4-1.4-2.2-3.1-2.4-4.6c0-0.2-0.2-0.4-0.4-0.4c0,0-0.5-0.1-1.1-2.4c-0.5-1.8-0.2-2.3-0.2-2.5c0.1-0.1,0.2-0.1,0.3-0.1h0.1  c0.1,0,0.2,0,0.3-0.1c0.1-0.1,0.2-0.2,0.2-0.3c0,0,0.3-3.8,2.5-5.1c1.1-0.7,2.5-0.6,4.1,0.1c3.6,1.5,6.2,1.4,7.8,1.1  c1.6,1.3,1.1,3.3,1,3.7v0c-0.1,0.2,0,0.3,0.1,0.5c0.1,0.1,0.3,0.2,0.4,0.2c0.2,0,0.3,0,0.4,0.1c0.1,0.1,0.4,0.7-0.2,2.5  C76.8,39.3,76.3,39.4,76.3,39.4z"></path><path d="M54.7,50.7c2.7-2.2,4-5.8,3.2-9.2l-2.1-9.1c-1.2-6-7.1-9.8-13-8.5c-4.3,0.9-7.6,4.2-8.5,8.5l-2.1,9.1  c-0.8,3.4,0.4,7,3.1,9.2c-4.4,1.3-11,4.3-11,13.5c0,4.1,9.3,7.4,20.8,7.4s20.8-3.3,20.8-7.4C65.8,55.3,59.2,52,54.7,50.7z   M38.3,35.6C38.4,35.6,38.4,35.6,38.3,35.6c1.7,0.1,5-0.2,8.7-3.5c0.3-0.3,0.8-0.2,1.1,0.1c0,0,0.1,0.1,0.1,0.1  c0.9,1.4,2.2,2.6,3.7,3.3c0.3,0.2,0.5,0.5,0.5,0.8l-0.1,4.1c-0.1,2.5-1.2,4.8-3.1,6.4c-0.1,0.1-0.2,0.3-0.2,0.4v3.3  c0,0.6,0.4,1.2,0.9,1.5l-4.3,5.6c-0.3,0.3-0.7,0.4-1.1,0.1c-0.1,0-0.1-0.1-0.1-0.1l-4.3-5.6c0.6-0.3,0.9-0.9,0.9-1.6v-3.3  c0-0.2-0.1-0.3-0.2-0.4c-1.5-1.2-2.5-2.9-2.9-4.7l-0.3-3.3v0l0-2.5C37.6,36,37.9,35.6,38.3,35.6z"></path></svg>
