<svg height='100px' width='100px' xmlns="http://www.w3.org/2000/svg" xmlns:xlink="http://www.w3.org/1999/xlink" xml:space="preserve" version="1.1" style="shape-rendering:geometricPrecision;text-rendering:geometricPrecision;image-rendering:optimizeQuality;" viewBox="0 0 2540 2540" x="0px" y="0px" fill-rule="evenodd" clip-rule="evenodd"><defs></defs><g><path class="fil0" d="M326 514c0,-34 28,-63 63,-63 35,0 63,29 63,63l0 7c106,29 180,125 180,235 0,110 -75,206 -180,234l0 1036c0,34 -28,63 -63,63 -35,0 -63,-29 -63,-63l0 -1036c-105,-28 -180,-124 -180,-234 0,-110 74,-206 180,-235l0 -7zm63 125c-64,0 -116,52 -116,117 0,64 52,116 116,116 65,0 117,-51 117,-116 0,-65 -52,-117 -117,-117z"></path><path class="fil0" d="M913 514c0,-34 29,-63 63,-63 35,0 64,29 64,63l0 246c105,29 179,125 179,235 0,110 -74,206 -179,234l0 797c0,34 -29,63 -64,63 -34,0 -63,-29 -63,-63l0 -797c-105,-28 -179,-124 -179,-234 0,-110 74,-206 179,-235l0 -246zm63 364c-64,0 -116,52 -116,117 0,64 52,116 116,116 65,0 117,-51 117,-116 0,-65 -52,-117 -117,-117z"></path><path class="fil0" d="M2088 514c0,-34 28,-63 63,-63 35,0 63,29 63,63l0 256c105,28 180,124 180,234 0,110 -75,206 -180,235l0 787c0,34 -28,63 -63,63 -35,0 -63,-29 -63,-63l0 -787c-105,-29 -180,-125 -180,-235 0,-110 74,-206 180,-234l0 -256zm63 374c-65,0 -117,52 -117,116 0,65 52,117 117,117 65,0 116,-52 116,-117 0,-64 -52,-116 -116,-116z"></path><path class="fil0" d="M1500 514c0,-34 29,-63 64,-63 34,0 63,29 63,63l0 517c105,29 179,125 179,235 0,110 -74,206 -179,234l0 526c0,34 -29,63 -63,63 -35,0 -64,-29 -64,-63l0 -526c-105,-28 -179,-124 -179,-234 0,-110 74,-206 179,-235l0 -517zm64 635c-65,0 -117,53 -117,117 0,65 52,116 117,116 64,0 116,-52 116,-116 0,-65 -52,-117 -116,-117z"></path></g></svg>
